HIERARCHY
ROOT Hips
{
	OFFSET -3.958830 18.904000 13.208200
	CHANNELS 6 Xposition Yposition Zposition Zrotation Yrotation Xrotation 
	JOINT LHipJoint
	{
		OFFSET 0.000000 0.000000 0.000000
		CHANNELS 3 Zrotation Yrotation Xrotation
		JOINT LeftUpLeg
		{
			OFFSET 1.800000 -1.400000 0.085000
			CHANNELS 3 Zrotation Yrotation Xrotation
			JOINT LeftLeg
			{
				OFFSET 2.215000 -6.000000 0.000000
				CHANNELS 3 Zrotation Yrotation Xrotation
				JOINT LeftFoot
				{
					OFFSET 2.500000 -6.900000 0.000000
					CHANNELS 3 Zrotation Yrotation Xrotation
					JOINT LeftToeBase
					{
						OFFSET 0.200000 -0.500000 1.950000
						CHANNELS 3 Zrotation Yrotation Xrotation
						End Site
						{
							OFFSET 0.000000 0.000000 0.000000
						}
					}
				}
			}
		}
	}
	JOINT RHipJoint
	{
		OFFSET 0.000000 0.000000 0.000000
		CHANNELS 3 Zrotation Yrotation Xrotation
		JOINT RightUpLeg
		{
			OFFSET -1.800000 -1.400000 0.085000
			CHANNELS 3 Zrotation Yrotation Xrotation
			JOINT RightLeg
			{
				OFFSET -2.215000 -6.000000 0.000000
				CHANNELS 3 Zrotation Yrotation Xrotation
				JOINT RightFoot
				{
					OFFSET -2.500000 -6.900000 0.000000
					CHANNELS 3 Zrotation Yrotation Xrotation
					JOINT RightToeBase
					{
						OFFSET -0.200000 -0.500000 1.950000
						CHANNELS 3 Zrotation Yrotation Xrotation
						End Site
						{
							OFFSET 0.000000 0.000000 0.000000
						}
					}
				}
			}
		}
	}
	JOINT LowerBack
	{
		OFFSET 0.000000 0.000000 0.000000
		CHANNELS 3 Zrotation Yrotation Xrotation
		JOINT Spine
		{
			OFFSET -0.087000 1.940000 -0.288900
			CHANNELS 3 Zrotation Yrotation Xrotation
			JOINT Spine1
			{
				OFFSET 0.000000 1.950000 0.060000
				CHANNELS 3 Zrotation Yrotation Xrotation
				JOINT Neck
				{
					OFFSET 0.000000 0.000000 0.000000
					CHANNELS 3 Zrotation Yrotation Xrotation
					JOINT Neck1
					{
						OFFSET 0.000000 1.600000 0.340000
						CHANNELS 3 Zrotation Yrotation Xrotation
						JOINT Head
						{
							OFFSET 0.000000 1.667000 -0.240000
							CHANNELS 3 Zrotation Yrotation Xrotation
							End Site
							{
								OFFSET 0.000000 0.000000 0.000000
							}
						}
					}
				}
				JOINT LeftShoulder
				{
					OFFSET 0.000000 0.000000 0.000000
					CHANNELS 3 Zrotation Yrotation Xrotation
					JOINT LeftArm
					{
						OFFSET 2.700000 1.550000 -0.730000
						CHANNELS 3 Zrotation Yrotation Xrotation
						JOINT LeftForeArm
						{
							OFFSET 5.450000 0.000000 0.000000
							CHANNELS 3 Zrotation Yrotation Xrotation
							JOINT LeftHand
							{
								OFFSET 3.450000 0.000000 0.000000
								CHANNELS 3 Zrotation Yrotation Xrotation
								JOINT LeftHandIndex1
								{
									OFFSET 0.750000 0.000000 0.000000
									CHANNELS 3 Zrotation Yrotation Xrotation
									End Site
									{
										OFFSET 0.000000 0.000000 0.000000
									}
								}
							}
						}
					}
				}
				JOINT RightShoulder
				{
					OFFSET 0.000000 0.000000 0.000000
					CHANNELS 3 Zrotation Yrotation Xrotation
					JOINT RightArm
					{
						OFFSET -2.700000 1.550000 -0.730000
						CHANNELS 3 Zrotation Yrotation Xrotation
						JOINT RightForeArm
						{
							OFFSET -5.450000 0.000000 0.000000
							CHANNELS 3 Zrotation Yrotation Xrotation
							JOINT RightHand
							{
								OFFSET -3.450000 0.000000 0.000000
								CHANNELS 3 Zrotation Yrotation Xrotation
								JOINT RightHandIndex1
								{
									OFFSET -0.750000 0.000000 0.000000
									CHANNELS 3 Zrotation Yrotation Xrotation
									End Site
									{
										OFFSET 0.000000 0.000000 0.000000
									}
								}
							}
						}
					}
				}
			}
		}
	}
}
MOTION
Frames: 12
Frame Time: 0.016667
2.725170 16.358760 -3.016930 1.974606 -6.425669 1.535380 -14.923329 11.791866 2.213037 13.840115 -4.024394 -20.419670 -5.700269 11.737503 40.819739 -0.442159 8.522559 1.812691 0.086120 -0.197590 -0.453640 18.936259 -8.117045 5.870950 -28.955697 5.481428 -45.091474 52.946437 -26.190665 30.912730 -1.779473 -10.269650 1.463682 0.039850 0.954760 -0.039330 -4.943961 -2.084006 -8.649611 19.839270 -8.386829 20.423379 -14.262910 -3.489516 2.662509 1.735130 -11.310857 -11.464799 -26.908499 11.987910 34.025181 -1.882890 0.543280 -8.381100 -21.692462 -13.626937 3.515472 -25.016723 -7.811721 -2.345115 -6.183319 -28.544818 0.130102 -3.920484 2.414925 0.785430 0.413400 -0.451130 0.443870 17.718135 19.479082 7.796896 37.119833 10.753835 -5.188494 48.238827 40.761822 13.326245 1.546106 -1.263393 -0.681990 0.890080 0.423700 -0.162610 
2.718570 16.345790 -3.032840 1.535042 -6.879095 0.791648 -14.929497 11.770826 2.197546 14.824112 -3.778931 -19.981993 -6.053079 12.184267 41.118423 -0.440450 8.719192 1.763926 0.083110 -0.210930 -0.426550 18.934265 -8.045177 5.968780 -30.246997 5.528424 -45.032611 55.251819 -26.691620 30.361756 -1.850143 -10.338727 1.468232 0.043370 0.959520 -0.072440 -4.931340 -2.085913 -8.733624 20.090061 -8.389349 21.762255 -13.994168 -3.189505 2.554813 1.882394 -11.369371 -11.717924 -27.615475 12.160464 35.276762 -2.373890 0.356800 -9.382480 -22.229318 -14.169533 3.687718 -26.179578 -8.080827 -2.284967 -2.933692 -26.614976 -0.720961 -3.914031 2.283668 0.838550 0.393240 -0.429990 0.451650 17.998480 20.292856 7.882842 37.496042 11.422563 -5.380166 48.965523 40.875480 13.521849 1.542610 -1.201871 -0.728830 0.966040 0.420460 -0.178900 
2.704200 16.329840 -3.087560 0.649541 -8.415837 -1.659379 -14.939578 11.804779 2.103199 16.655340 -3.010689 -18.130176 -6.322547 12.895459 41.683356 -0.419015 8.951675 1.630044 0.178160 -0.130080 -0.296950 18.915961 -7.908708 6.252274 -33.705263 5.942094 -44.670685 61.528512 -27.363461 28.521711 -2.049553 -10.406945 1.438611 0.063170 0.808180 -0.082300 -4.881092 -2.069227 -8.933658 20.570818 -8.458161 26.543825 -14.003565 -2.243412 2.076199 2.565606 -11.197716 -12.899209 -29.278629 13.230576 39.438626 -2.848630 0.154020 -13.742610 -24.552271 -16.362216 4.293890 -26.994910 -7.785700 -2.719427 4.138215 -22.940489 -2.203850 -3.797337 2.180617 0.981230 0.259030 -0.296580 0.428060 19.137975 23.066494 8.636462 38.536318 12.071671 -6.911569 49.117478 43.228956 14.092554 1.550398 -1.125388 -0.708750 0.983590 0.376240 -0.228060 
2.679890 16.335750 -3.148590 -0.212326 -10.832814 -4.169797 -14.969546 11.805025 2.080064 18.521320 -2.308500 -16.701478 -6.422947 14.063925 43.810600 -0.420221 9.561112 1.364106 0.227000 -0.122670 -0.179650 18.888332 -7.776118 6.424594 -36.345901 6.798592 -44.298977 65.940916 -27.506901 27.377102 -2.181423 -10.377795 1.410963 0.085040 0.705800 -0.114310 -4.820568 -2.028743 -9.053033 20.502116 -8.881656 31.491108 -14.079794 -1.855152 1.603772 2.865161 -11.364135 -13.811817 -31.741164 15.417738 42.699322 -2.673830 -0.035740 -19.553290 -26.941200 -18.092107 5.016898 -27.142408 -6.049005 -3.774683 10.856051 -21.648861 -3.572758 -3.726934 2.045842 1.161370 0.134410 -0.203220 0.361170 21.087824 25.483967 8.658044 38.479576 14.752799 -7.191339 50.789154 44.668009 15.384670 1.535313 -0.981934 -0.761110 1.076890 0.411900 -0.308370 
2.676970 16.338170 -3.188560 -1.106700 -12.824133 -5.119103 -14.999960 11.732429 2.075516 19.554651 -1.536680 -17.137302 -5.506457 14.965495 46.739017 -0.361687 10.106497 1.127838 0.242510 -0.127610 -0.153330 18.890508 -7.613008 6.614583 -39.344186 7.364884 -44.380475 70.234159 -26.408742 24.773824 -2.226237 -10.209792 1.423678 0.079950 0.648510 -0.097620 -4.822144 -1.931183 -9.144602 21.632146 -8.736190 33.861434 -14.538767 -0.984783 1.735771 3.456067 -11.288725 -14.874862 -33.142962 16.863416 45.288469 -2.949200 -0.415170 -21.881710 -28.259043 -19.355256 5.777566 -28.358977 -4.152956 -4.860835 17.783009 -20.949981 -4.899877 -3.693097 2.038844 1.255440 0.071540 -0.148570 0.327730 21.377712 27.532784 9.050838 39.537231 16.821280 -7.452128 54.797293 49.294857 18.938175 1.530152 -0.960780 -0.764970 1.081460 0.443550 -0.335750 
2.654320 16.341640 -3.212180 -1.678108 -14.190271 -5.544146 -15.009761 11.687090 1.990325 19.860674 -0.619394 -17.742768 -3.751112 15.237697 49.224016 -0.211066 10.308992 1.015852 0.360840 0.020700 -0.059720 18.910848 -7.542634 6.776074 -42.398860 7.593566 -43.316012 73.970740 -24.234043 21.306609 -2.240303 -9.900618 1.498984 0.115720 0.526940 -0.073970 -4.876562 -1.752804 -9.154120 22.597406 -8.200653 34.336826 -14.741150 -0.312254 3.417838 3.922037 -11.382319 -15.617905 -34.243460 18.137533 46.698242 -3.391940 -0.496480 -23.455420 -28.023880 -20.064304 6.574491 -30.349621 -2.454712 -6.211306 23.846709 -22.304031 -6.389947 -3.592604 2.147319 1.231840 0.003700 -0.066620 0.335490 20.372353 29.075922 9.288515 40.649764 19.841051 -7.112198 58.086641 56.030985 23.576914 1.587418 -1.028213 -0.650200 1.010010 0.354830 -0.319440 
2.609850 16.362020 -3.226230 -2.543767 -15.026226 -5.834912 -14.974823 11.692444 1.884530 20.435258 0.377102 -17.968540 -1.919879 15.060765 50.509515 -0.215338 10.447888 0.984672 0.334450 -0.025140 -0.063880 18.944382 -7.671542 6.777504 -43.701168 8.127409 -41.307080 74.607008 -22.803915 19.544157 -2.181868 -9.713940 1.543002 0.113540 0.554730 -0.088720 -5.000663 -1.434675 -9.064640 24.262854 -7.707136 33.990951 -15.021703 0.175067 5.630986 4.186861 -11.614057 -15.855763 -34.678873 18.455607 46.751484 -4.258000 -1.110940 -23.359390 -27.940354 -20.303167 6.930477 -30.941520 -1.468208 -6.963779 28.367103 -23.454142 -7.715742 -3.604963 2.113298 1.241700 0.013170 -0.087060 0.333660 19.814696 29.780204 9.811197 41.031514 22.499075 -5.791967 68.157706 67.057688 35.035550 1.717204 -0.911961 -0.692140 1.051910 0.375100 -0.327350 
2.531660 16.404040 -3.227560 -2.748913 -14.819933 -5.940524 -14.902412 11.776714 1.718225 20.134068 1.117510 -17.895090 0.045495 14.050040 50.103890 -0.339520 10.205204 1.083180 0.254110 -0.098250 -0.140300 18.985212 -7.958509 6.701994 -44.137013 8.552453 -38.547244 72.535710 -21.390352 18.563388 -2.053998 -9.533214 1.607793 0.111530 0.647930 -0.141940 -5.149116 -1.071264 -8.906660 25.148289 -6.835430 32.255600 -15.036654 0.626147 8.068927 4.081435 -11.528178 -16.546471 -34.670181 19.702925 47.875473 -3.713850 -0.705690 -21.372520 -26.611124 -21.302456 7.897147 -31.265157 -0.219913 -7.224629 30.400766 -24.351282 -8.524678 -3.649129 2.028651 1.237110 0.066650 -0.155780 0.327260 18.903300 30.912214 10.253971 41.360756 25.933361 -4.059455 69.117419 73.591625 39.572112 1.732866 -0.728873 -0.778150 1.138420 0.439520 -0.330280 
2.437400 16.450660 -3.229170 -2.903353 -14.389528 -6.157067 -14.825357 11.925901 1.612618 19.891956 1.560179 -17.388910 1.304379 13.033175 48.818566 -0.417289 9.815811 1.196433 0.250070 -0.108790 -0.125510 18.995598 -8.345626 6.485601 -42.638119 9.079183 -35.819724 67.531561 -20.613733 19.232510 -1.940680 -9.405150 1.605766 0.095740 0.644280 -0.105800 -5.243820 -0.751912 -8.734748 25.219060 -5.886481 30.663518 -14.902394 0.929144 10.247819 4.075621 -11.254546 -16.708550 -33.088472 19.816412 49.267346 -4.377880 0.237720 -20.170910 -24.627896 -21.613069 8.505397 -30.869839 0.308189 -7.252747 31.742397 -24.627987 -8.980722 -3.680335 2.065953 1.208240 0.097410 -0.165290 0.299440 17.046055 31.299896 10.281889 42.222550 29.137117 -2.447843 67.393924 77.624256 40.891498 1.707512 -0.716540 -0.747910 1.089350 0.454050 -0.339270 
2.310960 16.494390 -3.215920 -2.887043 -13.422368 -6.016121 -14.767292 12.138440 1.551172 19.469977 1.702510 -17.342894 2.866872 11.714076 47.331510 -0.502791 9.374500 1.357953 0.187720 -0.174590 -0.162190 18.968811 -8.769430 6.141762 -39.763943 9.081629 -32.422511 61.451981 -19.738954 19.856480 -1.762234 -9.213097 1.643172 0.062780 0.700390 -0.089840 -5.247848 -0.595279 -8.552673 23.895020 -4.346765 28.184447 -13.717891 1.175981 12.210892 3.734472 -10.956347 -16.386196 -30.688251 19.304514 49.934065 -4.893470 1.492580 -17.395000 -21.717860 -20.894988 8.697762 -31.042773 0.212470 -7.315644 34.425702 -25.211331 -9.900506 -3.751036 2.068299 1.147040 0.170210 -0.219670 0.282020 14.871473 30.549952 10.236255 43.227289 31.962835 0.894672 69.606793 83.590858 46.159539 1.899960 -0.362841 -0.754470 1.062670 0.487210 -0.338030 
2.165580 16.555720 -3.211890 -2.708072 -12.636484 -5.797330 -14.759680 12.411411 1.543062 19.190039 1.923017 -17.450910 4.103562 10.662093 45.611227 -0.648912 9.050891 1.505090 0.066240 -0.327640 -0.222120 18.885820 -9.148241 5.720906 -35.792106 9.288698 -29.596757 54.941243 -19.041014 21.269475 -1.560466 -8.984899 1.705350 0.021000 0.815290 -0.092700 -5.108985 -0.633403 -8.373365 21.728506 -2.434029 26.416257 -11.387667 1.866672 13.554806 3.073110 -10.910532 -15.524346 -29.041317 18.386812 49.242079 -5.961160 2.285250 -15.749640 -18.527579 -18.967620 8.104184 -31.395195 -1.059941 -7.215304 35.591162 -28.253315 -11.271321 -3.843133 1.937701 1.131040 0.260770 -0.298050 0.258580 12.943571 28.798733 9.939379 43.791747 34.281408 5.137307 -107.236968 89.703097 -126.126851 2.300509 0.705814 -0.847160 1.118520 0.571270 -0.355190 
2.003630 16.627330 -3.218190 -2.304960 -12.136376 -5.171543 -14.825290 12.695297 1.529063 18.464429 2.147077 -18.208570 5.719190 9.488056 43.831842 -0.685866 8.560805 1.701854 0.039160 -0.347600 -0.269030 18.757782 -9.371033 5.395404 -32.310828 9.327548 -27.822599 50.181102 -18.296937 22.252294 -1.405743 -8.781251 1.783960 0.005240 0.869610 -0.076510 -4.810393 -0.876121 -8.239227 18.270239 -0.129025 24.581260 -8.555413 2.744740 13.734562 2.294755 -10.353791 -14.510674 -26.357379 17.005041 49.160273 -5.707140 2.909860 -11.977400 -15.339439 -17.050121 8.029549 -31.627626 -1.434497 -7.026746 34.168545 -33.130576 -12.218786 -3.856211 1.975399 1.034070 0.335540 -0.363020 0.282700 10.972247 27.188285 8.236735 45.174996 35.847585 0.962395 96.174526 87.411410 83.817662 2.743253 6.548445 -0.826840 1.056450 0.555240 -0.331500 
